# xmcd
#
# Track frame offsets: 
#        150
#        19313
#        36682
#        55727
#        73726
#        88928
#        106924
#        111700
#        131462
#        149704
#        167389
#        184088
#        201477
#        220108
#
# Disc length: 3221 seconds
#
# Revision: 1
# Processed by: cddbd v1.5.2PL0 Copyright (c) Steve Scherf et al.
# Submitted via: ExactAudioCopy v1.3
#
DISCID=df0c930e
DTITLE=金鍾國 - HERE I AM
DYEAR=2008
DGENRE=Ballad
TTITLE0=Thank You
TTITLE1=Missing Those Days
TTITLE2=Long Long Time
TTITLE3=Today More Than Yesterday
TTITLE4=Forever
TTITLE5=Can't Get Better Than This
TTITLE6=In Front Of That House Prologue
TTITLE7=In Front of That House
TTITLE8=Poisoned In Love (Feat. Joosuc).
TTITLE9=Break-Up Formula
TTITLE10=Goodbye For Now
TTITLE11=I Love You I Love You
TTITLE12=Some Person, Some Love
TTITLE13=You and Me Together
EXTD=
EXTT0=
EXTT1=
EXTT2=
EXTT3=
EXTT4=
EXTT5=
EXTT6=
EXTT7=
EXTT8=
EXTT9=
EXTT10=
EXTT11=
EXTT12=
EXTT13=
PLAYORDER=
